<svg width="370" height="110" viewBox="0 0 370 110" fill="none" xmlns="http://www.w3.org/2000/svg">
<path d="M367.546 96.6871C367.546 98.0669 367.274 99.4332 366.745 100.708C366.217 101.982 365.442 103.14 364.466 104.116C363.489 105.091 362.33 105.864 361.055 106.391C359.779 106.918 358.412 107.188 357.032 107.187H12.968C10.1793 107.19 7.50369 106.085 5.5295 104.116C3.5553 102.147 2.44422 99.475 2.44058 96.6871V12.9536C2.44421 10.1644 3.55486 7.49065 5.52866 5.51944C7.50246 3.54822 10.1781 2.44065 12.968 2.43993H357.029C358.41 2.43993 359.778 2.71189 361.053 3.24028C362.329 3.76868 363.488 4.54315 364.465 5.51947C365.441 6.49578 366.215 7.65482 366.743 8.93038C367.272 10.2059 367.543 11.573 367.543 12.9536L367.546 96.6871Z" fill="white"/>
<path d="M357.032 109.63H12.968C9.53267 109.629 6.23796 108.266 3.80678 105.839C1.3756 103.413 0.00653644 100.122 0 96.6871L0 12.9563C0.00508203 9.52022 1.37324 6.22644 3.80434 3.79752C6.23545 1.36861 9.53097 0.00290019 12.968 0L357.029 0C360.466 0.00434732 363.761 1.37052 366.191 3.79912C368.622 6.22772 369.991 9.52067 369.997 12.9563V96.6871C370.003 103.826 364.176 109.63 357.032 109.63V109.63Z" fill="#A6A6A6"/>
<path d="M367.546 96.6871C367.546 98.0669 367.274 99.4332 366.745 100.708C366.217 101.982 365.442 103.14 364.466 104.116C363.489 105.091 362.33 105.864 361.055 106.391C359.779 106.918 358.412 107.188 357.032 107.187H12.968C10.1793 107.19 7.50369 106.085 5.5295 104.116C3.5553 102.147 2.44422 99.475 2.44058 96.6871V12.9536C2.44421 10.1644 3.55486 7.49065 5.52866 5.51944C7.50246 3.54822 10.1781 2.44065 12.968 2.43993H357.029C358.41 2.43993 359.778 2.71189 361.053 3.24028C362.329 3.76868 363.488 4.54315 364.465 5.51947C365.441 6.49578 366.215 7.65482 366.743 8.93038C367.272 10.2059 367.543 11.573 367.543 12.9536L367.546 96.6871Z" fill="black"/>
<path d="M82.6177 54.2378C82.5382 45.4019 89.8544 41.1033 90.189 40.9031C86.0455 34.8636 79.6232 34.0384 77.3664 33.9726C71.9724 33.4051 66.7402 37.1994 63.9925 37.1994C61.19 37.1994 56.9587 34.0275 52.3984 34.1207C46.53 34.2111 41.0401 37.6079 38.0292 42.8825C31.8153 53.6374 36.4496 69.4421 42.403 78.1354C45.3811 82.3957 48.8609 87.1467 53.4158 86.9795C57.8719 86.7985 59.5364 84.142 64.9139 84.142C70.2421 84.142 71.8051 86.9795 76.4504 86.8726C81.2329 86.7985 84.2438 82.5958 87.1177 78.2999C90.5592 73.4228 91.9413 68.6142 91.9961 68.3675C91.8864 68.3291 82.7109 64.8254 82.6177 54.2378V54.2378ZM73.8426 28.2539C76.2393 25.2574 77.8791 21.1808 77.4239 17.0439C73.955 17.1974 69.6168 19.4427 67.1187 22.3734C64.9084 24.9558 62.934 29.1887 63.4441 33.1694C67.3408 33.46 71.3417 31.2037 73.8426 28.2539V28.2539Z" fill="white"/>
<path d="M357.032 0H172.741L244.924 109.63H357.032C360.468 109.627 363.763 108.262 366.194 105.834C368.625 103.406 369.993 100.114 370 96.6789V12.9563C369.994 9.52045 368.626 6.22708 366.195 3.79832C363.764 1.36956 360.469 0.00362403 357.032 0V0Z" fill="url(#paint0_linear_1_9)"/>
<path d="M147.161 86.3681H140.934L137.523 75.6516H125.665L122.416 86.3681H116.353L128.103 49.8843H135.359L147.161 86.3681V86.3681ZM136.494 71.1556L133.409 61.6289C133.083 60.6556 132.469 58.3637 131.569 54.7559H131.459C131.097 56.3076 130.519 58.5995 129.726 61.6289L126.693 71.1556H136.494ZM177.32 72.8909C177.32 77.365 176.106 80.9016 173.673 83.4978C171.496 85.8089 168.789 86.963 165.562 86.963C162.076 86.963 159.57 85.7211 158.048 83.2319V97.0353H152.202V68.7074C152.202 65.8974 152.128 63.0161 151.985 60.0607H157.127L157.453 64.2305H157.563C159.512 61.0888 162.471 59.5179 166.442 59.5179C169.546 59.5179 172.138 60.7434 174.211 63.197C176.281 65.6561 177.32 68.8856 177.32 72.8909ZM171.364 73.1048C171.364 70.5442 170.788 68.4333 169.631 66.7692C168.367 65.0393 166.67 64.173 164.542 64.173C163.099 64.173 161.788 64.6555 160.618 65.6068C159.444 66.5663 158.676 67.8192 158.317 69.3708C158.156 69.9511 158.065 70.5484 158.045 71.1501V75.5392C158.045 77.45 158.632 79.0648 159.806 80.3862C160.979 81.7021 162.504 82.3628 164.38 82.3628C166.582 82.3628 168.296 81.5102 169.522 79.8187C170.75 78.1217 171.364 75.8846 171.364 73.1048V73.1048ZM207.586 72.8909C207.586 77.365 206.372 80.9016 203.939 83.4978C201.759 85.8089 199.055 86.963 195.825 86.963C192.34 86.963 189.833 85.7211 188.311 83.2319V97.0353H182.465V68.7074C182.465 65.8974 182.391 63.0161 182.248 60.0607H187.39L187.716 64.2305H187.826C189.773 61.0888 192.732 59.5179 196.705 59.5179C199.807 59.5179 202.398 60.7434 204.477 63.197C206.544 65.6561 207.586 68.8856 207.586 72.8909V72.8909ZM201.627 73.1048C201.627 70.5442 201.049 68.4333 199.892 66.7692C198.627 65.0393 196.936 64.173 194.808 64.173C193.365 64.173 192.054 64.6555 190.878 65.6068C189.704 66.5663 188.939 67.8192 188.58 69.3708C188.402 70.0946 188.306 70.684 188.306 71.1501V75.5392C188.306 77.45 188.895 79.0648 190.063 80.3862C191.237 81.6994 192.762 82.3628 194.643 82.3628C196.848 82.3628 198.562 81.5102 199.785 79.8187C201.013 78.1217 201.627 75.8846 201.627 73.1048V73.1048ZM241.425 76.1341C241.425 79.2402 240.339 81.7652 238.181 83.7144C235.807 85.8418 232.491 86.9082 228.241 86.9082C224.314 86.9082 221.166 86.1515 218.791 84.6355L220.143 79.7639C222.707 81.2826 225.523 82.0393 228.589 82.0393C230.794 82.0393 232.508 81.5404 233.731 80.5507C234.956 79.5582 235.576 78.2314 235.576 76.5755C235.576 75.0923 235.063 73.8505 234.057 72.8388C233.045 71.83 231.372 70.8896 229.022 70.0261C222.633 67.6437 219.435 64.1593 219.435 59.5755C219.435 56.5818 220.565 54.1309 222.819 52.2146C225.073 50.301 228.063 49.3442 231.781 49.3442C235.102 49.3442 237.869 49.9227 240.065 51.0768L238.598 55.8416C236.53 54.723 234.197 54.1638 231.586 54.1638C229.524 54.1638 227.906 54.6709 226.749 55.6798C225.775 56.5818 225.282 57.6811 225.282 58.9861C225.282 60.4253 225.844 61.6206 226.963 62.5582C227.934 63.4218 229.705 64.3621 232.266 65.371C235.409 66.6376 237.718 68.1125 239.196 69.8067C240.685 71.501 241.425 73.6147 241.425 76.1341ZM260.805 64.4471H254.36V77.2198C254.36 80.4684 255.496 82.0887 257.772 82.0887C258.817 82.0887 259.683 82.0009 260.369 81.8172L260.53 86.2557C259.379 86.6861 257.862 86.9027 255.984 86.9027C253.675 86.9027 251.87 86.1982 250.568 84.789C249.271 83.3799 248.618 81.0195 248.618 77.6968V64.4361H244.779V60.0498H248.618V55.2329L254.36 53.5003V60.0498H260.805V64.4471V64.4471ZM289.823 72.9978C289.823 77.0416 288.666 80.3615 286.357 82.9577C283.941 85.6307 280.727 86.963 276.721 86.963C272.854 86.963 269.78 85.6828 267.487 83.1249C265.195 80.5616 264.049 77.3322 264.049 73.4365C264.049 69.3599 265.233 66.0207 267.594 63.4245C269.961 60.8256 273.147 59.5261 277.154 59.5261C281.015 59.5261 284.116 60.8091 286.464 63.3697C288.707 65.8535 289.823 69.0611 289.823 72.9978ZM283.763 73.1322C283.763 70.7224 283.242 68.6553 282.197 66.9254C280.971 64.8364 279.216 63.7919 276.943 63.7919C274.601 63.7919 272.805 64.8364 271.582 66.9254C270.534 68.6553 270.013 70.758 270.013 73.2418C270.013 75.6544 270.534 77.7269 271.582 79.4513C272.846 81.5404 274.609 82.5849 276.893 82.5849C279.128 82.5849 280.88 81.5184 282.147 79.3992C283.222 77.6282 283.763 75.5474 283.763 73.1322ZM308.835 65.201C308.227 65.0913 307.61 65.0371 306.992 65.0393C304.935 65.0393 303.345 65.8124 302.226 67.3695C301.255 68.7403 300.767 70.4729 300.767 72.5647V86.3681H294.921V68.3455C294.926 65.5839 294.869 62.8225 294.751 60.0635H299.843L300.057 65.0969H300.219C300.838 63.367 301.809 61.9715 303.142 60.927C304.362 60.0143 305.844 59.5201 307.368 59.5179C307.908 59.5179 308.396 59.5563 308.829 59.6248L308.835 65.201V65.201ZM334.982 71.9698C334.997 72.8583 334.925 73.7462 334.768 74.6208H317.229C317.294 77.2198 318.145 79.2101 319.773 80.5808C321.251 81.8035 323.163 82.4176 325.51 82.4176C328.107 82.4176 330.476 82.0064 332.607 81.1757L333.523 85.2304C331.033 86.316 328.093 86.8561 324.701 86.8561C320.621 86.8561 317.418 85.6553 315.087 83.2593C312.762 80.8605 311.596 77.6365 311.596 73.5982C311.596 69.634 312.679 66.3305 314.848 63.6959C317.119 60.8832 320.187 59.4768 324.049 59.4768C327.841 59.4768 330.712 60.8832 332.662 63.6959C334.206 65.9248 334.982 68.6882 334.982 71.9698V71.9698ZM329.407 70.4537C329.448 68.7184 329.064 67.2243 328.272 65.9604C327.26 64.332 325.702 63.5205 323.615 63.5205C321.704 63.5205 320.146 64.3128 318.962 65.9028C317.988 67.1667 317.41 68.6855 317.231 70.4483L329.407 70.4537Z" fill="white"/>
<path d="M123.979 36.9855C122.353 36.9855 120.946 36.906 119.775 36.7717V19.1329C121.413 18.88 123.067 18.7553 124.725 18.7601C131.429 18.7601 134.517 22.0581 134.517 27.4342C134.517 33.6354 130.87 36.9855 123.979 36.9855ZM124.96 21.0218C124.055 21.0218 123.285 21.0766 122.646 21.2082V34.6169C122.991 34.6717 123.655 34.6964 124.587 34.6964C128.98 34.6964 131.481 32.1961 131.481 27.5137C131.481 23.3384 129.219 21.0218 124.96 21.0218V21.0218ZM144.139 37.1199C140.361 37.1199 137.912 34.2989 137.912 30.469C137.912 26.4774 140.413 23.6317 144.353 23.6317C148.077 23.6317 150.581 26.3184 150.581 30.2579C150.581 34.2989 148.001 37.1199 144.139 37.1199ZM144.249 25.7317C142.173 25.7317 140.843 27.6727 140.843 30.3868C140.843 33.0487 142.201 34.9897 144.222 34.9897C146.243 34.9897 147.6 32.9144 147.6 30.3319C147.6 27.7001 146.27 25.7317 144.249 25.7317ZM172.129 23.8976L168.085 36.8265H165.449L163.774 31.2119C163.357 29.8386 163.01 28.445 162.735 27.0366H162.68C162.469 28.4458 162.068 29.8576 161.643 31.2119L159.861 36.8265H157.198L153.392 23.8976H156.345L157.809 30.0441C158.155 31.508 158.446 32.8897 158.687 34.1947H158.742C158.953 33.1063 159.299 31.7465 159.806 30.0715L161.643 23.9004H163.985L165.743 29.9399C166.168 31.4038 166.513 32.8404 166.782 34.1974H166.859C167.045 32.8678 167.339 31.4559 167.736 29.9399L169.308 23.9004L172.129 23.8976V23.8976ZM187.02 36.8265H184.146V29.4026C184.146 27.1161 183.268 25.9702 181.538 25.9702C179.835 25.9702 178.664 27.4342 178.664 29.1366V36.8265H175.79V27.5932C175.79 26.45 175.763 25.2245 175.683 23.8949H178.212L178.346 25.8907H178.426C179.199 24.509 180.767 23.6317 182.525 23.6317C185.24 23.6317 187.022 25.707 187.022 29.0845L187.02 36.8265V36.8265ZM194.945 36.8265H192.068V17.965H194.945V36.8265ZM205.423 37.1199C201.647 37.1199 199.195 34.2989 199.195 30.469C199.195 26.4774 201.696 23.6317 205.634 23.6317C209.361 23.6317 211.861 26.3184 211.861 30.2579C211.864 34.2989 209.281 37.1199 205.423 37.1199ZM205.53 25.7317C203.454 25.7317 202.124 27.6727 202.124 30.3868C202.124 33.0487 203.484 34.9897 205.499 34.9897C207.523 34.9897 208.878 32.9144 208.878 30.3319C208.881 27.7001 207.553 25.7317 205.53 25.7317V25.7317ZM223.192 36.8265L222.984 35.3379H222.907C222.03 36.5359 220.749 37.1199 219.126 37.1199C216.808 37.1199 215.163 35.4969 215.163 33.3147C215.163 30.1236 217.93 28.4732 222.721 28.4732V28.2347C222.721 26.5322 221.818 25.6796 220.036 25.6796C218.761 25.6796 217.642 26.0004 216.658 26.6391L216.073 24.7502C217.269 24.0045 218.761 23.6317 220.513 23.6317C223.892 23.6317 225.597 25.4137 225.597 28.9804V33.7423C225.597 35.0473 225.655 36.0589 225.784 36.8293L223.192 36.8265V36.8265ZM222.797 30.3868C219.605 30.3868 218.004 31.1599 218.004 32.9939C218.004 34.351 218.829 35.0144 219.976 35.0144C221.437 35.0144 222.797 33.8986 222.797 32.3826V30.3868V30.3868ZM239.552 36.8265L239.418 34.7512H239.339C238.513 36.3194 237.126 37.1199 235.187 37.1199C232.069 37.1199 229.76 34.3784 229.76 30.5211C229.76 26.4774 232.154 23.629 235.423 23.629C237.153 23.629 238.379 24.2129 239.07 25.3863H239.127V17.965H242.004V33.3421C242.004 34.5922 242.034 35.7628 242.111 36.8265H239.552ZM239.127 29.2189C239.127 27.4095 237.929 25.866 236.1 25.866C233.969 25.866 232.667 27.7549 232.667 30.4142C232.667 33.0213 234.019 34.806 236.042 34.806C237.849 34.806 239.127 33.2352 239.127 31.3737V29.2189ZM260.242 37.1199C256.466 37.1199 254.018 34.2989 254.018 30.469C254.018 26.4774 256.519 23.6317 260.456 23.6317C264.183 23.6317 266.684 26.3184 266.684 30.2579C266.687 34.2989 264.106 37.1199 260.242 37.1199ZM260.349 25.7317C258.276 25.7317 256.946 27.6727 256.946 30.3868C256.946 33.0487 258.304 34.9897 260.322 34.9897C262.346 34.9897 263.7 32.9144 263.7 30.3319C263.706 27.7001 262.376 25.7317 260.349 25.7317ZM282.139 36.8265H279.263V29.4026C279.263 27.1161 278.385 25.9702 276.655 25.9702C274.952 25.9702 273.784 27.4342 273.784 29.1366V36.8265H270.907V27.5932C270.907 26.45 270.88 25.2245 270.8 23.8949H273.328L273.463 25.8907H273.542C274.313 24.509 275.884 23.629 277.639 23.629C280.354 23.629 282.139 25.7043 282.139 29.0818V36.8265ZM301.475 26.0524H298.313V32.3305C298.313 33.9288 298.867 34.7265 299.986 34.7265C300.493 34.7265 300.918 34.6717 301.261 34.5922L301.34 36.7744C300.784 36.9883 300.038 37.0952 299.111 37.0952C296.846 37.0952 295.491 35.8451 295.491 32.5717V26.0524H293.604V23.8976H295.491V21.529L298.313 20.6764V23.8949H301.475V26.0524V26.0524ZM316.688 36.8265H313.817V29.4574C313.817 27.1436 312.943 25.9729 311.209 25.9729C309.72 25.9729 308.333 26.9846 308.333 29.0325V36.8265H305.462V17.965H308.333V25.7317H308.39C309.295 24.3226 310.606 23.629 312.279 23.629C315.016 23.629 316.688 25.7564 316.688 29.1366V36.8265V36.8265ZM332.275 31.0529H323.651C323.706 33.5011 325.326 34.8828 327.726 34.8828C329.001 34.8828 330.175 34.669 331.211 34.2715L331.658 36.2673C330.435 36.7991 328.996 37.065 327.32 37.065C323.275 37.065 320.881 34.51 320.881 30.5485C320.881 26.5843 323.333 23.6043 326.996 23.6043C330.301 23.6043 332.374 26.0524 332.374 29.7507C332.393 30.1872 332.359 30.6243 332.275 31.0529V31.0529ZM329.64 29.005C329.64 27.0092 328.634 25.6001 326.796 25.6001C325.145 25.6001 323.84 27.0366 323.654 29.005H329.64V29.005Z" fill="white"/>
<defs>
<linearGradient id="paint0_linear_1_9" x1="271.367" y1="109.921" x2="271.367" y2="-285.457" gradientUnits="userSpaceOnUse">
<stop stop-color="#1A1A1A" stop-opacity="0.1"/>
<stop offset="0.123" stop-color="#212121" stop-opacity="0.151"/>
<stop offset="0.308" stop-color="#353535" stop-opacity="0.227"/>
<stop offset="0.532" stop-color="#575757" stop-opacity="0.318"/>
<stop offset="0.783" stop-color="#858585" stop-opacity="0.421"/>
<stop offset="1" stop-color="#B3B3B3" stop-opacity="0.51"/>
</linearGradient>
</defs>
</svg>
