<?xml version="1.0" encoding="UTF-8"?>
<svg id="Layer_2" data-name="Layer 2" xmlns="http://www.w3.org/2000/svg" xmlns:xlink="http://www.w3.org/1999/xlink" viewBox="0 0 483.42 87.67">
  <defs>
    <style>
      .cls-1 {
        fill: url(#radial-gradient);
      }

      .cls-1, .cls-2, .cls-3 {
        stroke-width: 0px;
      }

      .cls-2 {
        fill: url(#radial-gradient-2);
      }

      .cls-3 {
        fill: #fff;
      }
    </style>
    <radialGradient id="radial-gradient" cx="51.68" cy="32.78" fx="51.68" fy="32.78" r="28.17" gradientUnits="userSpaceOnUse">
      <stop offset=".35" stop-color="#58595b"/>
      <stop offset="1" stop-color="#231f20"/>
    </radialGradient>
    <radialGradient id="radial-gradient-2" cx="43.82" cy="50.19" fx="43.82" fy="50.19" r="34.53" xlink:href="#radial-gradient"/>
  </defs>
  <g id="Layer_1-2" data-name="Layer 1">
    <g>
      <g>
        <g>
          <path class="cls-3" d="m121.4,69.24c.23-.17.4-.26.57-.26.2,0,.34.11.51.34l1.62,2.33c.11.17.17.34.17.48,0,.2-.14.4-.43.65-1.99,1.65-4.57,2.67-7.43,2.67-6.04,0-10.55-4.31-10.55-10.18s4.54-10.41,10.78-10.41c2.89,0,5.39,1.05,7.32,2.67.23.2.34.37.34.54s-.06.31-.2.51l-1.65,2.33c-.17.26-.34.37-.54.37-.17,0-.37-.08-.57-.23-1.3-.94-2.89-1.65-4.74-1.65-3.26,0-5.64,2.33-5.64,5.79s2.35,5.73,5.64,5.73c1.9,0,3.46-.65,4.79-1.67Z"/>
          <path class="cls-3" d="m136.46,75.45c-5.13,0-8.79-2.78-8.79-8.88v-10.61c0-.51.23-.74.74-.74h3.43c.54,0,.77.23.77.74v10.21c0,3.04,1.36,4.74,4.03,4.74s4.06-1.7,4.06-4.74v-10.21c0-.51.23-.74.74-.74h3.43c.54,0,.77.23.77.74v10.55c0,5.98-3.8,8.93-9.16,8.93Z"/>
          <path class="cls-3" d="m155.8,70.55h7.29c.51,0,.74.23.74.74v3.06c0,.51-.23.74-.74.74h-11.91c-.51,0-.74-.23-.74-.74v-18.38c0-.51.23-.74.74-.74h3.43c.54,0,.77.23.77.74v14.15c0,.31.09.43.43.43Z"/>
          <path class="cls-3" d="m179.74,59.77h-4.48c-.31,0-.43.11-.43.43v14.15c0,.51-.23.74-.74.74h-3.46c-.51,0-.74-.23-.74-.74v-14.15c0-.31-.11-.43-.43-.43h-4.48c-.51,0-.74-.23-.74-.74v-3.06c0-.51.23-.74.74-.74h14.75c.51,0,.74.23.74.74v3.06c0,.51-.23.74-.74.74Z"/>
          <path class="cls-3" d="m192.39,75.45c-5.13,0-8.79-2.78-8.79-8.88v-10.61c0-.51.23-.74.74-.74h3.43c.54,0,.77.23.77.74v10.21c0,3.04,1.36,4.74,4.03,4.74s4.06-1.7,4.06-4.74v-10.21c0-.51.23-.74.74-.74h3.43c.54,0,.77.23.77.74v10.55c0,5.98-3.8,8.93-9.16,8.93Z"/>
          <path class="cls-3" d="m211.31,69.1v5.25c0,.51-.23.74-.77.74h-3.43c-.51,0-.74-.23-.74-.74v-18.38c0-.51.23-.74.74-.74h6.98c5.59,0,8.37,2.21,8.37,6.52,0,2.84-1.36,4.71-3.43,5.76l4.4,6.67c.14.2.2.37.2.51,0,.26-.23.4-.65.4h-3.83c-.79,0-1.16-.23-1.56-.85l-3.21-5.16c-.2-.31-.37-.4-.74-.4h-1.9c-.34,0-.43.08-.43.43Zm0-8.91v3.72c0,.34.09.45.43.45h2.16c2.38,0,3.46-.79,3.46-2.35,0-1.65-1.19-2.24-3.46-2.24h-2.16c-.34,0-.43.11-.43.43Z"/>
          <path class="cls-3" d="m238.31,71.62h-7.03c-.31,0-.4.06-.54.37l-1.08,2.35c-.28.62-.51.74-1.19.74h-3.46c-.4,0-.65-.11-.65-.43,0-.14.03-.31.14-.51l8.88-17.84c.57-1.13.94-1.5,1.5-1.5s.94.37,1.5,1.5l8.88,17.84c.11.2.14.37.14.51,0,.31-.23.43-.62.43h-3.6c-.71,0-.94-.11-1.22-.74l-1.11-2.35c-.14-.31-.23-.37-.54-.37Zm-1.65-4.25c0-.06,0-.14-.06-.23l-1.82-3.89-1.82,3.89c-.06.08-.09.17-.09.23,0,.14.11.2.31.2h3.15c.23,0,.31-.06.31-.2Z"/>
          <path class="cls-3" d="m253.48,70.55h7.29c.51,0,.74.23.74.74v3.06c0,.51-.23.74-.74.74h-11.91c-.51,0-.74-.23-.74-.74v-18.38c0-.51.23-.74.74-.74h3.43c.54,0,.77.23.77.74v14.15c0,.31.09.43.43.43Z"/>
          <path class="cls-3" d="m277.73,75.08h-3.43c-.51,0-.74-.23-.74-.74v-18.38c0-.51.23-.74.74-.74h12.08c.51,0,.77.23.77.74v3.06c0,.54-.26.74-.77.74h-7.46c-.34,0-.43.11-.43.43v2.92c0,.34.09.43.43.43h6.5c.54,0,.77.23.77.77v3.03c0,.51-.23.74-.77.74h-6.5c-.34,0-.43.11-.43.43v5.84c0,.51-.23.74-.77.74Z"/>
          <path class="cls-3" d="m300.37,54.86c6.18,0,10.64,4.28,10.64,10.3s-4.48,10.3-10.69,10.3-10.55-4.23-10.55-10.24,4.48-10.35,10.61-10.35Zm-.03,16.05c3.12,0,5.56-2.3,5.56-5.73s-2.41-5.79-5.53-5.79-5.5,2.3-5.5,5.79,2.33,5.73,5.47,5.73Z"/>
          <path class="cls-3" d="m323.54,75.45c-5.13,0-8.79-2.78-8.79-8.88v-10.61c0-.51.23-.74.74-.74h3.43c.54,0,.77.23.77.74v10.21c0,3.04,1.36,4.74,4.03,4.74s4.06-1.7,4.06-4.74v-10.21c0-.51.23-.74.74-.74h3.43c.54,0,.77.23.77.74v10.55c0,5.98-3.8,8.93-9.16,8.93Z"/>
          <path class="cls-3" d="m350.63,55.23h3.43c.51,0,.77.23.77.74v18.38c0,.71-.2,1.11-.68,1.11-.4,0-.79-.28-1.47-.94l-10.21-9.59v9.42c0,.51-.23.74-.77.74h-3.43c-.51,0-.74-.23-.74-.74v-18.38c0-.71.2-1.11.68-1.11.4,0,.79.28,1.47.94l10.21,9.59v-9.42c0-.51.23-.74.74-.74Z"/>
          <path class="cls-3" d="m360.52,55.23h6.98c6.95,0,10.86,3.83,10.86,9.7,0,6.18-4.14,10.15-11.35,10.15h-6.5c-.51,0-.74-.23-.74-.74v-18.38c0-.51.23-.74.74-.74Zm4.2,4.96v9.93c0,.31.08.43.43.43h1.84c4.14,0,6.27-2.07,6.27-5.47,0-3.21-2.13-5.3-6.16-5.3h-1.96c-.34,0-.43.11-.43.43Z"/>
          <path class="cls-3" d="m393.54,71.62h-7.03c-.31,0-.4.06-.54.37l-1.08,2.35c-.28.62-.51.74-1.19.74h-3.46c-.4,0-.65-.11-.65-.43,0-.14.03-.31.14-.51l8.88-17.84c.57-1.13.94-1.5,1.5-1.5s.94.37,1.5,1.5l8.88,17.84c.11.2.14.37.14.51,0,.31-.23.43-.62.43h-3.6c-.71,0-.94-.11-1.22-.74l-1.11-2.35c-.14-.31-.23-.37-.54-.37Zm-1.65-4.25c0-.06,0-.14-.06-.23l-1.82-3.89-1.82,3.89c-.06.08-.08.17-.08.23,0,.14.11.2.31.2h3.15c.23,0,.31-.06.31-.2Z"/>
          <path class="cls-3" d="m415.72,59.77h-4.48c-.31,0-.43.11-.43.43v14.15c0,.51-.23.74-.74.74h-3.46c-.51,0-.74-.23-.74-.74v-14.15c0-.31-.11-.43-.43-.43h-4.48c-.51,0-.74-.23-.74-.74v-3.06c0-.51.23-.74.74-.74h14.75c.51,0,.74.23.74.74v3.06c0,.51-.23.74-.74.74Z"/>
          <path class="cls-3" d="m423.89,75.08h-3.43c-.51,0-.74-.23-.74-.74v-18.38c0-.51.23-.74.74-.74h3.43c.54,0,.77.23.77.74v18.38c0,.51-.23.74-.77.74Z"/>
          <path class="cls-3" d="m439.15,54.86c6.18,0,10.64,4.28,10.64,10.3s-4.48,10.3-10.69,10.3-10.55-4.23-10.55-10.24,4.48-10.35,10.61-10.35Zm-.03,16.05c3.12,0,5.56-2.3,5.56-5.73s-2.41-5.79-5.53-5.79-5.5,2.3-5.5,5.79,2.33,5.73,5.47,5.73Z"/>
          <path class="cls-3" d="m466.77,55.23h3.43c.51,0,.77.23.77.74v18.38c0,.71-.2,1.11-.68,1.11-.4,0-.79-.28-1.47-.94l-10.21-9.59v9.42c0,.51-.23.74-.77.74h-3.43c-.51,0-.74-.23-.74-.74v-18.38c0-.71.2-1.11.68-1.11.4,0,.79.28,1.47.94l10.21,9.59v-9.42c0-.51.23-.74.74-.74Z"/>
        </g>
        <g>
          <path class="cls-3" d="m112.35,47.35h-3.42c-.64,0-.9-.26-.9-.9v-24.47c0-.64.26-.9.9-.9h15.2c.68,0,.94.26.94.9v3.08c0,.68-.26.9-.94.9h-10.36c-.38,0-.49.15-.49.49v5.52c0,.38.11.49.49.49h9.08c.68,0,.94.26.94.94v3.04c0,.64-.26.9-.94.9h-9.08c-.38,0-.49.15-.49.49v8.63c0,.64-.26.9-.94.9Z"/>
          <path class="cls-3" d="m141.17,47.35h-3.42c-.64,0-.9-.26-.9-.9v-24.47c0-.64.26-.9.9-.9h3.42c.68,0,.94.26.94.9v24.47c0,.64-.26.9-.94.9Z"/>
          <path class="cls-3" d="m160.95,38.72v7.73c0,.64-.26.9-.94.9h-3.42c-.64,0-.9-.26-.9-.9v-24.47c0-.64.26-.9.9-.9h8.37c7.28,0,10.81,2.89,10.81,8.37,0,3.83-1.91,6.23-4.8,7.47l6.12,9.27c.19.26.26.49.26.68,0,.3-.26.49-.83.49h-3.75c-.98,0-1.39-.26-1.91-1.05l-4.8-7.58c-.26-.41-.45-.53-.98-.53h-3.64c-.38,0-.49.11-.49.53Zm0-12.27v6.57c0,.41.11.53.49.53h3.42c3.68,0,5.48-1.2,5.48-3.83s-2.03-3.75-5.59-3.75h-3.3c-.38,0-.49.15-.49.49Z"/>
          <path class="cls-3" d="m205.62,23.74c.3.23.41.45.41.68,0,.19-.08.41-.26.68l-1.58,2.48c-.23.3-.41.45-.68.45-.19,0-.38-.08-.64-.26-1.84-1.31-3.83-2.29-6.19-2.29s-3.98,1.13-3.98,2.89c0,1.95,1.61,2.59,5.03,3.45,5.63,1.39,8.41,3.49,8.41,7.81,0,5.1-4.13,8.18-10.1,8.18-3.75,0-6.87-1.28-9.23-3.23-.34-.26-.53-.49-.53-.75,0-.19.11-.41.3-.71l1.58-2.44c.23-.3.41-.49.64-.49.19,0,.41.11.68.34,1.8,1.39,4.13,2.44,6.61,2.44,2.97,0,4.62-1.16,4.62-3s-1.35-2.48-5.25-3.45c-5.18-1.28-8.22-3.19-8.22-7.81,0-5.18,4.05-8.07,9.5-8.07,3.6,0,6.49,1.2,8.9,3.12Z"/>
          <path class="cls-3" d="m236.36,25.96h-6.46c-.38,0-.49.15-.49.49v20.01c0,.64-.26.9-.94.9h-3.42c-.64,0-.9-.26-.9-.9v-20.01c0-.34-.15-.49-.53-.49h-6.46c-.64,0-.9-.26-.9-.9v-3.08c0-.64.26-.9.9-.9h19.18c.64,0,.9.26.9.9v3.08c0,.64-.26.9-.9.9Z"/>
          <path class="cls-3" d="m271.45,40.03v6.42c0,.64-.26.9-.94.9h-3.42c-.64,0-.9-.26-.9-.9v-24.47c0-.64.26-.9.9-.9h8.11c7.47,0,11.15,3.08,11.15,9.08s-4.02,9.38-11.45,9.38h-2.97c-.38,0-.49.15-.49.49Zm0-13.59v7.73c0,.34.11.49.49.49h3c3.75,0,5.97-1.39,5.97-4.43s-2.1-4.28-5.97-4.28h-3c-.38,0-.49.15-.49.49Z"/>
          <path class="cls-3" d="m315.1,43.37v3.08c0,.64-.3.9-.94.9h-15.09c-.64,0-.9-.26-.9-.9v-24.47c0-.64.26-.9.9-.9h15.05c.64,0,.94.26.94.9v3.08c0,.68-.3.9-.94.9h-10.21c-.38,0-.49.15-.49.49v4.77c0,.38.11.49.49.49h8.93c.64,0,.94.26.94.94v3.04c0,.64-.3.9-.94.9h-8.93c-.38,0-.49.11-.49.49v4.92c0,.34.11.49.49.49h10.25c.64,0,.94.23.94.9Z"/>
          <path class="cls-3" d="m339.84,20.63c7.96,0,13.81,5.71,13.81,13.55s-5.89,13.62-13.93,13.62-13.74-5.63-13.74-13.47,5.89-13.7,13.85-13.7Zm-.08,22.3c4.69,0,8.45-3.6,8.45-8.67s-3.72-8.75-8.41-8.75-8.37,3.57-8.37,8.75,3.6,8.67,8.33,8.67Z"/>
          <path class="cls-3" d="m370.99,40.03v6.42c0,.64-.26.9-.94.9h-3.42c-.64,0-.9-.26-.9-.9v-24.47c0-.64.26-.9.9-.9h8.11c7.47,0,11.15,3.08,11.15,9.08s-4.02,9.38-11.45,9.38h-2.96c-.38,0-.49.15-.49.49Zm0-13.59v7.73c0,.34.11.49.49.49h3c3.75,0,5.97-1.39,5.97-4.43s-2.1-4.28-5.97-4.28h-3c-.38,0-.49.15-.49.49Z"/>
          <path class="cls-3" d="m403.46,42.47h10.32c.64,0,.9.26.9.9v3.08c0,.64-.26.9-.9.9h-15.16c-.64,0-.9-.26-.9-.9v-24.47c0-.64.26-.9.9-.9h3.42c.68,0,.94.26.94.9v20.01c0,.34.11.49.49.49Z"/>
          <path class="cls-3" d="m443.28,43.37v3.08c0,.64-.3.9-.94.9h-15.09c-.64,0-.9-.26-.9-.9v-24.47c0-.64.26-.9.9-.9h15.05c.64,0,.94.26.94.9v3.08c0,.68-.3.9-.94.9h-10.21c-.38,0-.49.15-.49.49v4.77c0,.38.11.49.49.49h8.93c.64,0,.94.26.94.94v3.04c0,.64-.3.9-.94.9h-8.93c-.38,0-.49.11-.49.49v4.92c0,.34.11.49.49.49h10.25c.64,0,.94.23.94.9Z"/>
          <path class="cls-3" d="m472.6,23.74c.3.23.41.45.41.68,0,.19-.08.41-.26.68l-1.58,2.48c-.23.3-.41.45-.68.45-.19,0-.38-.08-.64-.26-1.84-1.31-3.83-2.29-6.19-2.29s-3.98,1.13-3.98,2.89c0,1.95,1.61,2.59,5.03,3.45,5.63,1.39,8.41,3.49,8.41,7.81,0,5.1-4.13,8.18-10.1,8.18-3.75,0-6.87-1.28-9.23-3.23-.34-.26-.53-.49-.53-.75,0-.19.11-.41.3-.71l1.58-2.44c.23-.3.41-.49.64-.49.19,0,.41.11.68.34,1.8,1.39,4.13,2.44,6.61,2.44,2.97,0,4.62-1.16,4.62-3s-1.35-2.48-5.25-3.45c-5.18-1.28-8.22-3.19-8.22-7.81,0-5.18,4.05-8.07,9.5-8.07,3.6,0,6.49,1.2,8.9,3.12Z"/>
        </g>
      </g>
      <g>
        <circle class="cls-3" cx="43.83" cy="43.83" r="43.83"/>
        <path class="cls-1" d="m73.53,34.8c.48-5.18.17-10.23-.83-15.15,4.83,5.74,7.98,12.95,8.68,20.86-2.05,5.01-4.76,9.62-8.93,13.32-5.43,4.81-11.73,6.56-18.85,4.85-2.06-.49-3.88-1.53-5.49-2.9-3.75-3.2-5.85-7.47-7.65-11.95.63.79,1.23,1.61,1.89,2.37,3.37,3.84,7.49,6.42,12.62,6.94,6.38.64,11.36-1.97,14.92-7.23,2.26-3.34,3.28-7.15,3.64-11.12Zm-39.04-10.53c1.46,1.88,3.11,3.64,4.83,5.29,5.35,5.14,11.95,5.48,17.78.88,4.58-3.62,7.1-8.4,7.26-14.27.04-1.46-.13-2.85-.48-4.19-5.79-3.64-12.64-5.74-19.98-5.74s-13.51,1.9-19.12,5.22c3.23,4.28,6.41,8.59,9.71,12.82Zm20.58,10.12c-4.99,2.48-9.79,1.88-14.27-1.34-3.05-2.19-5.27-5.18-7.57-8.09-3.32-4.19-6.65-8.37-10-12.54-.43.28-.85.57-1.26.87,2.95,3.97,5.85,7.98,8.84,11.92,2.84,3.74,5.97,7.23,9.94,9.84,3.44,2.26,7.18,2.96,11.19,2,4.92-1.18,8.67-4.1,11.57-8.11,3.1-4.28,4.73-8.97,4.27-14.15-.69-.56-1.39-1.1-2.12-1.62,1.53,8.74-3.69,17.79-10.59,21.23Z"/>
        <path class="cls-2" d="m23.43,61.14c-.76-1.49-1.87-2.95-3.17-3.99-3.81-3.05-7.79-5.9-11.72-8.81-.7-.51-1.41-1.01-2.12-1.5-.08-.99-.12-1.98-.12-2.99,0-.82.03-1.63.08-2.43,3.64,2.84,7.4,5.54,10.87,8.58,3.64,3.19,6.08,7.27,7.46,11.94.05.16.11.31.38.46,0-1.1.12-2.21-.02-3.29-.4-3.09-1.93-5.68-4.05-7.87-4.52-4.69-9.25-9.17-14.24-13.36,1.15-7.2,4.34-13.72,8.96-18.94,6.48,6.29,12.66,12.85,18.4,19.84,3.81,4.64,6.98,9.67,8.55,15.56,1.18,4.45,1.36,8.93.22,13.4-1.51,5.92-5.28,9.64-10.48,11.94-7.68-2.46-14.28-7.32-18.93-13.7,1.1.29,2.21.53,3.35.68,1.13.16,2.3.2,3.43.07,2.96-.32,4.52-2.96,3.17-5.6Zm22.44,20.29c18.64-.96,33.69-15.49,35.47-33.9-.38.76-.76,1.5-1.17,2.23-3.11,5.59-7.64,9.34-14.07,10.5-3.24.58-6.49,1.13-9.74,1.68-5.56.94-9.55,3.91-11.93,9.06-.86,1.86-1.86,3.66-2.89,5.44-1.09,1.88-2.5,3.46-4.48,4.42,1.63.3,3.3.5,4.99.58,1.27,0,2.55,0,3.82,0Z"/>
      </g>
      <path class="cls-3" d="m483.42,20.5c0,1.24-.41,2.36-1.2,3.87l-1.16,2.21c-.34.64-.6.79-1.35.79h-1.58c-.45,0-.71-.15-.71-.45,0-.15.08-.3.19-.53l1.76-3.27c-1.01-.23-1.99-1.16-1.99-2.7,0-1.73,1.28-2.93,3-2.93s3.04,1.13,3.04,3Z"/>
    </g>
  </g>
</svg>