<?xml version="1.0" encoding="UTF-8"?>
<svg id="Layer_1" xmlns="http://www.w3.org/2000/svg" version="1.1" xmlns:xlink="http://www.w3.org/1999/xlink" viewBox="0 0 1846 400">
  <!-- Generator: Adobe Illustrator 29.3.1, SVG Export Plug-In . SVG Version: 2.1.0 Build 151)  -->
  <defs>
    <style>
      .st0 {
        fill: #19221c;
      }

      .st1 {
        fill: #fff;
      }

      .st2 {
        isolation: isolate;
      }

      .st3 {
        fill: #8c2f1d;
      }
    </style>
  </defs>
  <image class="st2" width="321" height="274" transform="translate(32 822.8)" xlink:href="9b52d2fd57b4722bcbbb-1.png"/>
  <image class="st2" width="1324" height="229" transform="translate(408 845.8)" xlink:href="9b52d2fd57b4722bcbbb-2.png"/>
  <g id="Layer_1-2">
    <g>
      <rect class="st1" x="34" y="51.5" width="291.4" height="291.4" rx="8.8" ry="8.8"/>
      <g>
        <g>
          <path class="st1" d="M458.2,93.4c3.5,0,5.3,1.8,5.3,5.3v8.6c0,3.4-1.8,5.1-5.3,5.1h-49.4v28.4h41.4c3.4,0,5.1,1.8,5.1,5.4v8.5c0,3.4-1.7,5.1-5.1,5.1h-41.4v34.5c0,3.5-1.8,5.3-5.3,5.3h-10.4c-3.5,0-5.3-1.8-5.3-5.3v-90.7c0-2.8,1-5.2,2.9-7.2,2-2,4.4-3,7.3-3h60.1Z"/>
          <path class="st1" d="M490.1,199.6c-3.5,0-5.3-1.8-5.3-5.3v-95.7c0-3.5,1.8-5.3,5.3-5.3h10.4c3.5,0,5.3,1.8,5.3,5.3v95.6c0,3.5-1.8,5.3-5.3,5.3h-10.4Z"/>
          <path class="st1" d="M611.8,192.3c.7,1.4,1,2.5,1,3.4,0,2.6-1.8,3.9-5.3,3.9h-10.1c-2.9,0-5-1.2-6.3-3.7l-18.6-31h-21.6v29.4c0,3.5-1.8,5.3-5.3,5.3h-10.4c-3.5,0-5.3-1.8-5.3-5.3v-90.5c0-2.9,1-5.4,2.9-7.4,2-2,4.4-3,7.5-3h32c11.9,0,21.5,3.4,29,10.2,7.4,6.8,11.1,15.5,11.1,26s-1.7,13-5.2,18.5c-3.5,5.5-8.3,9.7-14.4,12.6l18.9,31.4h0ZM550.9,111.7v36h20c6.2,0,11.2-1.7,14.8-5,3.6-3.4,5.4-7.7,5.4-12.9s-1.8-9.6-5.4-12.9-8.5-5-14.8-5h-20Z"/>
          <path class="st1" d="M671.7,200.7c-12,0-24.1-2.8-36.3-8.5-2.3-1-3.4-2.5-3.4-4.5s.2-2,.7-2.9l3.2-7.5c1-2.1,2.4-3.2,4.2-3.2s2,.3,3.4.9c10.7,4.4,20.3,6.6,28.7,6.6s10.3-1.1,13.2-3.3c3-2.2,4.5-5,4.5-8.3s-1.4-6.2-4.2-8.1-7.6-3.9-14.5-5.9l-5.8-1.8c-3.9-1.2-7.2-2.2-9.8-3.2-2.6-1-5.5-2.3-8.7-4.1-3.2-1.8-5.7-3.7-7.7-5.7-2-2-3.6-4.6-4.9-7.7s-2-6.6-2-10.5c0-8.8,3.6-16.1,10.7-21.9,7.1-5.8,16.6-8.8,28.5-8.8s22.5,2.6,34.5,7.9c2.3,1.2,3.5,2.7,3.5,4.7s-.2,1.6-.7,2.8l-3.2,7.2c-1.1,2.3-2.5,3.4-4.2,3.4s-1.8-.1-2.5-.4c-9.5-4.2-18.7-6.3-27.8-6.3s-10,1-12.9,3.1c-3,2.1-4.5,4.7-4.5,7.8s1.4,6,4.2,7.8,7.6,3.7,14.5,5.8l6.1,1.9c4.9,1.5,8.9,2.9,12,4.2,3.1,1.4,6.5,3.2,10,5.6s6.2,5.4,8,9.1,2.7,7.9,2.7,12.8c0,9.1-3.7,16.5-11,22.4-7.3,5.8-16.9,8.8-28.7,8.8h0Z"/>
          <path class="st1" d="M808.3,93.4c3.5,0,5.3,1.8,5.3,5.3v8.6c0,3.5-1.8,5.3-5.3,5.3h-28.1v81.7c0,3.5-1.8,5.3-5.3,5.3h-10.5c-3.4,0-5.1-1.8-5.1-5.3v-81.7h-28.2c-3.5,0-5.3-1.8-5.3-5.3v-8.6c0-3.5,1.8-5.3,5.3-5.3h77.2Z"/>
          <path class="st1" d="M914.7,93.4c11.9,0,21.5,3.4,29,10.2,7.4,6.8,11.1,15.5,11.1,25.9s-3.7,19.2-11.1,26c-7.4,6.8-17.1,10.2-29,10.2h-20.8v28.7c0,3.5-1.8,5.3-5.3,5.3h-10.4c-3.5,0-5.3-1.8-5.3-5.3v-90.6c0-2.9,1-5.4,2.9-7.4,2-2,4.4-3,7.5-3h31.3ZM913.1,147.4c6.2,0,11.2-1.7,14.8-5,3.7-3.4,5.5-7.6,5.5-12.8s-1.8-9.4-5.5-12.8c-3.7-3.4-8.6-5-14.8-5h-19.2v35.7s19.2,0,19.2,0Z"/>
          <path class="st1" d="M1044.5,112.4h-49.4v24.6h41.4c3.4,0,5.1,1.8,5.1,5.3v8.5c0,3.5-1.7,5.3-5.1,5.3h-41.4v24.6h49.4c3.5,0,5.3,1.7,5.3,5.1v8.6c0,3.5-1.8,5.3-5.3,5.3h-60.1c-2.9,0-5.4-1-7.3-3s-2.9-4.4-2.9-7.2v-85.7c0-2.8,1-5.2,2.9-7.2,2-2,4.4-3,7.3-3h60.1c3.5,0,5.3,1.8,5.3,5.3v8.6c0,3.4-1.8,5.1-5.3,5.1Z"/>
          <path class="st1" d="M1151.4,185.5c-9.5,10.2-21.5,15.3-36.1,15.3s-26.5-5.1-36-15.3c-9.5-10.2-14.2-23.2-14.2-39s4.7-28.8,14.2-39c9.5-10.2,21.5-15.3,36-15.3s26.5,5.1,36.1,15.3c9.5,10.2,14.3,23.2,14.3,39s-4.7,28.8-14.3,39ZM1094.5,171.1c5.4,6.3,12.4,9.4,20.8,9.4s15.4-3.1,20.8-9.4c5.4-6.3,8-14.5,8-24.6s-2.7-18.4-8-24.6c-5.4-6.3-12.3-9.4-20.8-9.4s-15.4,3.1-20.8,9.4c-5.4,6.3-8.1,14.5-8.1,24.6s2.7,18.3,8.1,24.6Z"/>
          <path class="st1" d="M1227.9,93.4c11.9,0,21.5,3.4,29,10.2,7.4,6.8,11.1,15.5,11.1,25.9s-3.7,19.2-11.1,26c-7.4,6.8-17.1,10.2-29,10.2h-20.8v28.7c0,3.5-1.8,5.3-5.3,5.3h-10.4c-3.5,0-5.3-1.8-5.3-5.3v-90.6c0-2.9,1-5.4,2.9-7.4s4.4-3,7.5-3h31.3ZM1226.3,147.4c6.2,0,11.2-1.7,14.8-5,3.7-3.4,5.5-7.6,5.5-12.8s-1.8-9.4-5.5-12.8c-3.7-3.4-8.6-5-14.8-5h-19.2v35.7s19.2,0,19.2,0Z"/>
          <path class="st1" d="M1357.8,180.4c3.5,0,5.3,1.8,5.3,5.3v8.6c0,3.5-1.8,5.3-5.3,5.3h-60.1c-2.8,0-5.2-1-7.2-3-2-2-3-4.4-3-7.2v-90.7c0-3.5,1.8-5.3,5.3-5.3h10.4c3.5,0,5.3,1.8,5.3,5.3v81.7h49.4,0Z"/>
          <path class="st1" d="M1454.5,112.4h-49.4v24.6h41.4c3.4,0,5.1,1.8,5.1,5.3v8.5c0,3.5-1.7,5.3-5.1,5.3h-41.4v24.6h49.4c3.5,0,5.3,1.7,5.3,5.1v8.6c0,3.5-1.8,5.3-5.3,5.3h-60.1c-2.9,0-5.4-1-7.3-3s-2.9-4.4-2.9-7.2v-85.7c0-2.8,1-5.2,2.9-7.2,2-2,4.4-3,7.3-3h60.1c3.5,0,5.3,1.8,5.3,5.3v8.6c0,3.4-1.8,5.1-5.3,5.1Z"/>
          <path class="st1" d="M1519.9,200.7c-12,0-24.1-2.8-36.3-8.5-2.3-1-3.4-2.5-3.4-4.5s.2-2,.7-2.9l3.2-7.5c1-2.1,2.4-3.2,4.2-3.2s2,.3,3.4.9c10.7,4.4,20.3,6.6,28.7,6.6s10.3-1.1,13.2-3.3,4.5-5,4.5-8.3-1.4-6.2-4.2-8.1-7.6-3.9-14.5-5.9l-5.8-1.8c-3.9-1.2-7.2-2.2-9.8-3.2-2.6-1-5.5-2.3-8.7-4.1-3.2-1.8-5.7-3.7-7.7-5.7-2-2-3.6-4.6-4.9-7.7-1.3-3.1-2-6.6-2-10.5,0-8.8,3.6-16.1,10.7-21.9,7.1-5.8,16.6-8.8,28.5-8.8s22.5,2.6,34.5,7.9c2.3,1.2,3.5,2.7,3.5,4.7s-.2,1.6-.7,2.8l-3.2,7.2c-1.1,2.3-2.5,3.4-4.2,3.4s-1.8-.1-2.5-.4c-9.5-4.2-18.7-6.3-27.8-6.3s-10,1-12.9,3.1c-3,2.1-4.5,4.7-4.5,7.8s1.4,6,4.2,7.8,7.6,3.7,14.5,5.8l6.1,1.9c4.9,1.5,8.9,2.9,12,4.2,3.1,1.4,6.5,3.2,10,5.6,3.6,2.4,6.2,5.4,8,9.1,1.8,3.7,2.7,7.9,2.7,12.8,0,9.1-3.7,16.5-11,22.4-7.3,5.8-16.9,8.8-28.7,8.8h0Z"/>
        </g>
        <g>
          <path class="st1" d="M440.3,287.7c-.9-1.9-2.3-2.3-3.3-2.3s-1.1,0-1.7.3c-5.5,2.1-10.1,3.2-13.7,3.2-6.1,0-11.1-2.2-15-6.6-3.9-4.4-5.9-10.3-5.9-17.5s2-13.1,5.9-17.6c3.9-4.4,8.9-6.7,15-6.7s8.3,1.1,13.8,3.2c.5.1,1.1.2,1.6.2,1,0,2.3-.4,3.3-2.3l2-4.5c.3-.7.5-1.3.5-2,0-1.2-.4-2.7-2.5-3.4-7-2.9-13.5-4.4-19.3-4.4-9.8,0-18,3.6-24.4,10.6-6.4,7-9.6,16-9.6,26.9s3.2,19.7,9.6,26.7c6.4,7,14.6,10.6,24.4,10.6s12.8-1.5,19.5-4.4c2-.9,2.4-2.3,2.4-3.4s0-.7-.6-2l-2.1-4.6h0Z"/>
          <path class="st1" d="M517.1,228h-5.6c-2.5,0-3.9,1.4-3.9,3.9v39c0,5.4-1.6,9.9-4.7,13.2-3.1,3.4-7.1,5-12.2,5s-9-1.6-12.1-5c-3.1-3.3-4.6-7.8-4.6-13.2v-39c0-2.5-1.5-3.9-4-3.9h-5.6c-2.5,0-3.9,1.4-3.9,3.9v38.9c0,9.2,2.8,16.8,8.5,22.6,5.6,5.8,12.9,8.7,21.7,8.7s16.1-2.9,21.8-8.7c5.6-5.8,8.5-13.4,8.5-22.6v-38.9c0-2.5-1.4-3.9-3.9-3.9h0Z"/>
          <path class="st1" d="M587.3,288.7h-33.6v-56.9c0-2.5-1.4-3.9-3.9-3.9h-5.7c-2.5,0-3.9,1.4-3.9,3.9v62.1c0,2.1.7,3.9,2.2,5.3,1.4,1.4,3.2,2.1,5.2,2.1h39.8c2.5,0,4-1.4,4-3.9v-4.8c0-2.5-1.5-3.9-4-3.9h0Z"/>
          <path class="st1" d="M645.6,228h-52c-2.5,0-3.9,1.4-3.9,3.9v4.8c0,2.5,1.4,3.9,3.9,3.9h19.3v56.9c0,2.5,1.4,3.9,3.9,3.9h5.6c2.5,0,4-1.4,4-3.9v-56.9h19.3c2.5,0,3.9-1.4,3.9-3.9v-4.8c0-2.5-1.4-3.9-3.9-3.9h0Z"/>
          <path class="st1" d="M721.9,228h-5.6c-2.5,0-3.9,1.4-3.9,3.9v39c0,5.4-1.6,9.9-4.7,13.2-3.1,3.4-7.1,5-12.2,5s-9-1.6-12.1-5c-3.1-3.3-4.6-7.8-4.6-13.2v-39c0-2.5-1.5-3.9-4-3.9h-5.6c-2.5,0-3.9,1.4-3.9,3.9v38.9c0,9.2,2.8,16.8,8.5,22.6,5.6,5.8,12.9,8.7,21.7,8.7s16.1-2.9,21.8-8.7c5.6-5.8,8.5-13.4,8.5-22.6v-38.9c0-2.5-1.4-3.9-3.9-3.9h0Z"/>
          <path class="st1" d="M800.1,295.8l-13.2-21.6c4-1.9,7.3-4.7,9.6-8.2,2.6-3.9,3.9-8.3,3.9-13.1,0-7.2-2.6-13.2-7.6-17.9-5-4.6-11.7-7-19.8-7h-20.5c-2.1,0-3.9.7-5.3,2.1-1.4,1.4-2.1,3.2-2.1,5.3v62c0,2.5,1.4,3.9,3.9,3.9h5.7c2.5,0,3.9-1.4,3.9-3.9v-20.5h15.1l13.4,21.9c.9,1.7,2.5,2.5,4.5,2.5h5.5c3.5,0,3.9-2.2,3.9-3.1s-.2-1.3-.7-2.3c0,0,0,0,0-.1h0ZM786.6,252.7c0,3.8-1.2,6.7-3.8,9.1-2.6,2.3-6.2,3.5-10.7,3.5h-13.6v-25.1h13.6c4.5,0,8,1.2,10.6,3.6,2.6,2.4,3.9,5.3,3.9,9h0Z"/>
          <path class="st1" d="M881.5,296l-23.6-62.6c-1.6-4.1-4.7-6.2-9.2-6.2s-7.6,2.1-9,6.2l-23.6,62.5c-.3.7-.5,1.3-.5,2,0,1,.4,3.4,4,3.4h5.4c2.2,0,3.7-1,4.3-3l4.1-11.5h30.8l4.1,11.5c.7,2,2.2,3,4.3,3h5.3c3.6,0,4-2.4,4-3.4s-.1-1.2-.3-1.9h0s0,0,0,0ZM859.7,274.6h-22l11-30.5,11,30.5h0Z"/>
          <path class="st1" d="M944.5,288.7h-33.6v-56.9c0-2.5-1.4-3.9-3.9-3.9h-5.7c-2.5,0-3.9,1.4-3.9,3.9v62.1c0,2.1.7,3.9,2.2,5.3,1.4,1.4,3.2,2.1,5.2,2.1h39.8c2.5,0,4-1.4,4-3.9v-4.8c0-2.5-1.5-3.9-4-3.9h0Z"/>
          <path class="st1" d="M1047.2,287.7c-.9-1.9-2.3-2.3-3.3-2.3s-1.1,0-1.7.3c-5.5,2.1-10.1,3.2-13.7,3.2-6.1,0-11.1-2.2-15-6.6-3.9-4.4-5.9-10.3-5.9-17.5s2-13.1,5.9-17.6c3.9-4.4,8.9-6.7,15-6.7s8.3,1.1,13.8,3.2c.5.1,1.1.2,1.6.2,1,0,2.3-.4,3.3-2.3l2-4.5c.3-.7.5-1.3.5-2,0-1.2-.4-2.7-2.5-3.4-7-2.9-13.5-4.4-19.3-4.4-9.8,0-18,3.6-24.4,10.6-6.4,7-9.6,16-9.6,26.9s3.2,19.7,9.6,26.7c6.4,7,14.6,10.6,24.4,10.6s12.8-1.5,19.5-4.4c2-.9,2.4-2.3,2.4-3.4s0-.7-.6-2l-2.1-4.6h0Z"/>
          <path class="st1" d="M1094.4,227.3c-9.8,0-18,3.6-24.4,10.6-6.4,7-9.6,16-9.6,26.9s3.2,19.7,9.6,26.7c6.4,7,14.6,10.6,24.4,10.6s18-3.6,24.5-10.6c6.4-7,9.6-16,9.6-26.7s-3.2-19.9-9.6-26.9c-6.4-7-14.7-10.6-24.5-10.6ZM1109.1,282.3c-3.8,4.5-8.6,6.7-14.6,6.7s-10.8-2.2-14.6-6.7c-3.8-4.5-5.7-10.4-5.7-17.5s1.9-13.2,5.7-17.7c3.8-4.5,8.6-6.7,14.6-6.7s10.9,2.2,14.6,6.7c3.8,4.5,5.7,10.4,5.7,17.7s-1.9,13.1-5.7,17.5h0Z"/>
          <path class="st1" d="M1201.9,228h-5.6c-2.5,0-3.9,1.4-3.9,3.9v39c0,5.4-1.6,9.9-4.7,13.2-3.1,3.4-7.1,5-12.2,5s-9-1.6-12.1-5c-3.1-3.3-4.6-7.8-4.6-13.2v-39c0-2.5-1.5-3.9-4-3.9h-5.6c-2.5,0-3.9,1.4-3.9,3.9v38.9c0,9.2,2.8,16.8,8.5,22.6,5.6,5.8,12.9,8.7,21.7,8.7s16.1-2.9,21.8-8.7c5.6-5.8,8.5-13.4,8.5-22.6v-38.9c0-2.5-1.4-3.9-3.9-3.9h0Z"/>
          <path class="st1" d="M1279.4,228h-5.7c-2.5,0-3.9,1.4-3.9,3.9v47l-27.7-47.2c-1.8-2.9-4.6-4.4-8.4-4.4s-4.5.8-6.2,2.3c-1.7,1.5-2.6,3.7-2.6,6.6v61.3c0,2.5,1.5,3.9,4,3.9h5.6c2.5,0,3.9-1.4,3.9-3.9v-46.7l27.7,46.9c1.8,2.9,4.5,4.4,8.3,4.4s4.7-.8,6.3-2.3c1.7-1.5,2.6-3.7,2.6-6.6v-61.3c0-2.5-1.4-3.9-3.9-3.9h0Z"/>
          <path class="st1" d="M1353.7,287.7c-.9-1.9-2.3-2.3-3.3-2.3s-1.1,0-1.7.3c-5.5,2.1-10.1,3.2-13.7,3.2-6.1,0-11.1-2.2-15-6.6-3.9-4.4-5.9-10.3-5.9-17.5s2-13.1,5.9-17.6c3.9-4.4,8.9-6.7,15-6.7s8.3,1.1,13.8,3.2c.5.1,1.1.2,1.6.2,1,0,2.3-.4,3.3-2.3l2-4.5c.3-.7.5-1.3.5-2,0-1.2-.4-2.7-2.5-3.4-7-2.9-13.5-4.4-19.3-4.4-9.8,0-18,3.6-24.4,10.6-6.4,7-9.6,16-9.6,26.9s3.2,19.7,9.6,26.7c6.4,7,14.6,10.6,24.4,10.6s12.8-1.5,19.5-4.4c2-.9,2.4-2.3,2.4-3.4s0-.7-.6-2l-2.1-4.6h0Z"/>
          <rect class="st1" x="1374.4" y="228" width="13.5" height="73.3" rx="2.1" ry="2.1"/>
          <path class="st1" d="M1454.6,288.7h-33.6v-56.9c0-2.5-1.4-3.9-3.9-3.9h-5.7c-2.5,0-3.9,1.4-3.9,3.9v62.1c0,2.1.7,3.9,2.2,5.3,1.4,1.4,3.2,2.1,5.2,2.1h39.8c2.5,0,4-1.4,4-3.9v-4.8c0-2.5-1.5-3.9-4-3.9h0Z"/>
        </g>
        <path class="st1" d="M1602.7,105c0-6.7-5.5-12.2-12.3-12.3h0c-3.3,0-6.3,1.3-8.7,3.6s-3.6,5.4-3.6,8.7c0,5,3.1,9.6,7.7,11.3l-8.7,15.8h10.7l.2-.3c0,0,8.3-10.4,13.6-21.8h0c.7-1.6,1-3.3,1-5"/>
        <g>
          <path class="st0" d="M169.1,156.5c55,34.9,126.4-49.6,85.7-104.9h-6.5c29.9,43-4.5,100.7-42,106.6-36.2,5.7-55.9-27.4-72.7-48.5-17.8-22.2-34-41-46.8-58.1h-8.1c28.9,28,54.7,82.3,90.5,104.9h0Z"/>
          <path class="st0" d="M165.9,138.8c47.4,42.1,116.6-34.5,76-87.2H94.8c22.5,24.5,45.1,64.1,71.1,87.2h0Z"/>
          <path class="st0" d="M264.5,206.6c-32,29.4-79.4,13.3-100.2-24.2,13.1,32,29,59.9,64.6,61.3,52.3,2.2,83.5-45.2,96.4-97v-79.8c-.5-8.5-7.6-15.3-16.2-15.3h-41.4c21,40.8,34.1,120.7-3.2,155Z"/>
          <path class="st3" d="M178.8,251.8c0-45.3-30.8-79.8-59.8-111.4-28.8-31.4-59.1-53.2-85-75.6v92.6c15.2,11.8,30.4,25.7,44.7,39.5,15,14.4,37.1,31.5,32.4,59.7-11-42.9-46.1-61.7-77-84.7v20.3c12.5,8,23.6,16.5,38.2,27.3,11.7,8.7,39.6,25,34,42-7,21.2-55.1.7-72.1-7.1v72.4c0,8.8,7.4,16,16.2,16h44.6c37.2-8.5,84.1-49.2,84.1-91h0Z"/>
          <path class="st3" d="M325.3,260.3v-80.4c-9.3,21.2-17.2,39.7-35,54.1-33.9,27.3-55.9,13.5-82.5,24.2-32.1,12.9-21.4,57.1-83.1,84.6h137.5c35.4-6.9,54.1-49.2,63-82.5h0q0,0,0,0Z"/>
          <path class="st3" d="M325.3,296.1c-7,17.5-20.4,41.5-39.6,46.8h23.5c8.9,0,16.1-7.3,16.1-16.2v-30.6Z"/>
        </g>
      </g>
    </g>
  </g>
</svg>