<?xml version="1.0" encoding="UTF-8"?>
<svg id="Layer_2" data-name="Layer 2" xmlns="http://www.w3.org/2000/svg" viewBox="0 0 292.89 78.4">
  <defs>
    <style>
      .cls-1 {
        fill: #1a1818;
      }

      .cls-1, .cls-2 {
        fill-rule: evenodd;
      }

      .cls-1, .cls-2, .cls-3 {
        stroke-width: 0px;
      }

      .cls-2 {
        fill: #8d1914;
      }

      .cls-3 {
        fill: #fff;
      }
    </style>
  </defs>
  <g id="Layer_1-2" data-name="Layer 1">
    <g>
      <rect class="cls-3" width="82.58" height="78.4"/>
      <g>
        <path class="cls-3" d="m105.27,33.41v3.94h6.74c.74,0,1.35.61,1.35,1.35,0,.74-.6,1.35-1.34,1.35,0,0,0,0-.01,0h-6.74v7.03h-3.15v-14.8c0-.87.71-1.57,1.57-1.57h10.6v2.7h-9.03Z"/>
        <rect class="cls-3" x="117.37" y="30.72" width="3.15" height="16.37"/>
        <path class="cls-3" d="m136.23,47.09l-3.62-6.17h-4.52v6.17h-3.15v-14.8c0-.87.71-1.57,1.57-1.57h7.28c2.8-.12,5.17,2.06,5.28,4.86,0,.08,0,.17,0,.25,0,2.06-1.25,3.9-3.17,4.65l3.91,6.61h-3.59Zm-3.03-13.67h-5.11v4.8h5.11c1.35.12,2.55-.87,2.67-2.22,0-.07,0-.14.01-.21-.02-1.33-1.12-2.4-2.46-2.38-.07,0-.15,0-.22.01"/>
        <path class="cls-3" d="m148.7,47.36c-2.21-.03-4.4-.47-6.47-1.28l.59-2.43c1.91.66,3.91,1.01,5.93,1.06,2.31,0,3.47-.71,3.47-1.82,0-.98-1.28-1.57-4.67-3.12-3.22-1.45-4.79-2.66-4.79-5.02,0-2.95,1.99-4.28,6.44-4.28,1.97.04,3.92.31,5.83.81l-.47,2.53c-1.75-.38-3.52-.59-5.31-.64-2.53,0-3.34.42-3.34,1.42,0,1.06.81,1.48,4.33,3.1,3.54,1.63,5.14,2.41,5.14,4.95,0,3.05-2.78,4.72-6.66,4.72"/>
        <path class="cls-3" d="m165.3,33.47v13.62h-3.15v-13.62h-5.44v-2.75h14.02v2.75h-5.44Z"/>
        <path class="cls-3" d="m186.59,41.19h-5.19v5.9h-3.15v-14.8c0-.87.7-1.57,1.57-1.58h6.76c2.89-.09,5.31,2.18,5.4,5.08.09,2.89-2.18,5.31-5.08,5.4-.11,0-.22,0-.32,0m-.44-7.77h-4.74v5.07h4.74c1.4.06,2.59-1.03,2.65-2.43,0-.04,0-.08,0-.12.01-1.38-1.09-2.5-2.47-2.52-.06,0-.12,0-.18,0"/>
        <path class="cls-3" d="m196.01,47.09c-.87,0-1.57-.71-1.57-1.57v-13.23c0-.87.71-1.57,1.57-1.57h10.18v2.7h-8.61v3.93h6.49c.75,0,1.37.6,1.38,1.35,0,.75-.6,1.35-1.35,1.35,0,0-.02,0-.03,0h-6.49v4.34h8.63v2.7h-10.2Z"/>
        <path class="cls-3" d="m216.89,47.36c-4.66.03-8.47-3.72-8.51-8.38s3.72-8.47,8.38-8.51c4.66-.03,8.47,3.72,8.51,8.38,0,.02,0,.05,0,.07.13,4.52-3.43,8.3-7.95,8.43-.14,0-.29,0-.43,0m0-14.09c-3.2,0-5.24,2.38-5.24,5.65s2.04,5.63,5.24,5.63,5.26-2.36,5.26-5.63-2.06-5.65-5.26-5.65"/>
        <path class="cls-3" d="m236.69,41.19h-5.18v5.9h-3.15v-14.8c0-.87.71-1.57,1.57-1.57h6.76c2.89-.09,5.31,2.18,5.4,5.08.09,2.89-2.18,5.31-5.08,5.4-.11,0-.22,0-.32,0m-.44-7.77h-4.74v5.07h4.74c1.4.06,2.59-1.03,2.65-2.43,0-.04,0-.08,0-.13.01-1.38-1.09-2.5-2.47-2.52-.06,0-.12,0-.19,0"/>
        <path class="cls-3" d="m246.08,47.09c-.86-.02-1.55-.71-1.55-1.57v-14.8h3.15v13.65h8.65v2.73h-10.25Z"/>
        <path class="cls-3" d="m260.5,47.09c-.87,0-1.57-.71-1.58-1.57v-13.23c0-.87.71-1.57,1.58-1.57h10.17v2.7h-8.6v3.93h6.49c.75,0,1.37.6,1.38,1.35,0,.75-.61,1.35-1.35,1.35,0,0-.02,0-.03,0h-6.49v4.34h8.63v2.7h-10.2Z"/>
        <path class="cls-3" d="m279.7,47.36c-2.21-.04-4.4-.47-6.46-1.28l.59-2.43c1.91.66,3.91,1.01,5.92,1.06,2.31,0,3.47-.71,3.47-1.82,0-.98-1.28-1.57-4.67-3.12-3.22-1.45-4.8-2.66-4.8-5.02,0-2.95,1.99-4.28,6.44-4.28,1.97.04,3.92.31,5.83.81l-.47,2.53c-1.75-.38-3.52-.59-5.31-.64-2.53,0-3.34.42-3.34,1.42,0,1.06.81,1.48,4.33,3.1,3.54,1.63,5.14,2.41,5.14,4.95,0,3.05-2.78,4.72-6.66,4.72"/>
        <path class="cls-3" d="m292.73,33.07c-.86,1.87-2.19,4.6-2.19,4.6h-1.48l1.38-3.59c-.78-.23-1.31-.96-1.3-1.77.02-1.03.88-1.85,1.91-1.83,1,.02,1.8.83,1.83,1.83,0,.26-.04.52-.15.76"/>
        <path class="cls-3" d="m107.88,55.55c-.68-.17-1.38-.26-2.08-.25-2.23,0-3.54,1.38-3.54,3.2s1.32,3.21,3.54,3.21c.71,0,1.41-.11,2.08-.31l.36,1.43c-.85.31-1.74.46-2.64.44-3.02,0-5.16-2-5.16-4.78s2.1-4.77,5.16-4.77c.9-.02,1.8.11,2.67.37l-.39,1.44Z"/>
        <path class="cls-3" d="m115.08,63.28c-2.12.11-3.93-1.53-4.04-3.65,0-.08,0-.15,0-.23v-5.53h1.78v5.55c-.03,1.25.97,2.29,2.22,2.31,1.25.03,2.29-.97,2.31-2.22,0-.03,0-.06,0-.09v-5.55h1.78v5.53c.01,2.13-1.71,3.87-3.84,3.88-.07,0-.14,0-.21,0"/>
        <path class="cls-3" d="m123.25,63.13c-.49,0-.88-.41-.88-.89v-8.37h1.78v7.72h4.89v1.54h-5.8Z"/>
        <path class="cls-3" d="m134.23,55.43v7.7h-1.78v-7.7h-3.07v-1.56h7.92v1.56h-3.07Z"/>
        <path class="cls-3" d="m143.49,63.28c-2.13.11-3.94-1.53-4.04-3.65,0-.07,0-.15,0-.23v-5.53h1.78v5.55c-.03,1.25.97,2.29,2.22,2.31,1.25.03,2.29-.97,2.31-2.22,0-.03,0-.06,0-.09v-5.55h1.78v5.53c.01,2.13-1.71,3.87-3.84,3.88-.07,0-.14,0-.21,0"/>
        <path class="cls-3" d="m157.17,63.13l-2.04-3.49h-2.56v3.49h-1.78v-8.37c0-.49.4-.89.89-.89h4.11c1.58-.07,2.92,1.17,2.99,2.75,0,.05,0,.09,0,.14,0,1.16-.71,2.21-1.79,2.63l2.21,3.74h-2.03Zm-1.71-7.73h-2.89v2.71h2.89c.76.07,1.44-.49,1.51-1.26,0-.04,0-.08,0-.12-.01-.75-.63-1.35-1.38-1.34-.04,0-.09,0-.13,0"/>
        <path class="cls-3" d="m168.19,63.13l-.81-2.07h-3.58l-.81,2.07h-1.82l3.68-8.85c.12-.3.41-.5.73-.5.33,0,.63.2.75.5l3.67,8.85h-1.82Zm-2.6-6.74l-1.26,3.27h2.54l-1.28-3.27Z"/>
        <path class="cls-3" d="m173.16,63.13c-.49-.01-.87-.41-.87-.89v-8.37h1.78v7.72h4.89v1.54h-5.8Z"/>
        <path class="cls-3" d="m192.02,55.55c-.68-.17-1.38-.26-2.09-.25-2.22,0-3.54,1.38-3.54,3.2s1.32,3.21,3.54,3.21c.71,0,1.41-.11,2.09-.31l.36,1.43c-.85.31-1.74.46-2.64.44-3.02,0-5.16-2-5.16-4.78s2.1-4.77,5.16-4.77c.9-.02,1.8.11,2.67.37l-.39,1.44Z"/>
        <path class="cls-3" d="m199.35,63.28c-2.64.02-4.79-2.1-4.81-4.74s2.1-4.79,4.74-4.81c2.64-.02,4.79,2.1,4.81,4.74v.04c.08,2.56-1.94,4.69-4.5,4.77-.08,0-.16,0-.25,0m0-7.97c-1.76-.12-3.29,1.21-3.42,2.97-.12,1.76,1.21,3.29,2.97,3.42,1.76.12,3.29-1.21,3.42-2.97,0-.07,0-.14,0-.22.15-1.61-1.04-3.04-2.65-3.19-.11,0-.22-.01-.32-.01"/>
        <path class="cls-3" d="m210.69,63.28c-2.13.11-3.93-1.53-4.04-3.66,0-.07,0-.15,0-.22v-5.53h1.78v5.55c0,1.25,1.02,2.27,2.27,2.27s2.27-1.02,2.27-2.27v-5.55h1.78v5.53c.01,2.13-1.71,3.87-3.84,3.88-.07,0-.14,0-.21,0"/>
        <path class="cls-3" d="m225.23,63.2c-.3.05-.6-.06-.79-.29l-4.67-5.95v6.17h-1.78v-8.47c0-.49.4-.88.89-.89.26-.02.52.1.68.31l4.68,5.93v-6.15h1.78v8.45c0,.45-.33.82-.78.87"/>
        <path class="cls-3" d="m236.15,55.55c-.68-.17-1.38-.26-2.08-.25-2.23,0-3.54,1.38-3.54,3.2s1.32,3.21,3.54,3.21c.71,0,1.41-.11,2.08-.31l.36,1.43c-.85.31-1.74.46-2.64.44-3.01,0-5.16-2-5.16-4.78s2.1-4.77,5.16-4.77c.9-.02,1.8.11,2.67.37l-.39,1.44Z"/>
        <rect class="cls-3" x="239.51" y="53.87" width="1.78" height="9.26"/>
        <path class="cls-3" d="m245.62,63.13c-.49,0-.88-.41-.88-.89v-8.37h1.78v7.72h4.9v1.54h-5.8Z"/>
      </g>
      <g>
        <rect class="cls-3" x="1.88" y="1.95" width="78.81" height="73.93"/>
        <path class="cls-1" d="m13.96,1.95h2.19c3.49,4.63,7.86,9.74,12.68,15.78,4.55,5.7,9.86,14.7,19.68,13.15,10.16-1.61,19.43-17.24,11.37-28.92h1.75c11.02,15.03-8.28,37.93-23.18,28.49C28.76,24.29,21.78,9.56,13.96,1.95"/>
        <path class="cls-1" d="m18.33,1.95h39.79c11,14.29-7.71,35.08-20.55,23.66-7.04-6.26-13.16-17-19.24-23.66"/>
        <path class="cls-1" d="m65.12,1.95h15.57v25.82c-3.46,14.06-11.92,26.91-26.06,26.33-9.65-.4-13.93-7.98-17.49-16.65,5.64,10.16,18.44,14.55,27.11,6.57,10.11-9.3,6.55-31,.87-42.07"/>
        <path class="cls-2" d="m1.88,3.64c8.11,7,15.79,14.48,23.01,22.41,7.85,8.58,16.18,17.94,16.18,30.24,0,11.36-6.38,17.29-16.46,19.59H1.88v-18.89c4.61,2.14,17.61,7.69,19.51,1.93,1.52-4.61-6-9.03-9.18-11.4-3.94-2.92-6.94-5.22-10.32-7.39v-5.5c8.36,6.24,17.86,11.32,20.81,22.98,1.27-7.68-4.69-12.3-8.75-16.21-3.84-3.78-7.86-7.35-12.07-10.71V3.64Z"/>
        <path class="cls-2" d="m80.69,58.62c-2.42,9.03-7.49,15.4-17.05,17.26h-31.09c8.69-1.73,7.7-14.31,16.38-17.83,8.02-3.26,16.01-1.6,22.3-6.58,4.86-3.84,6.95-8.92,9.45-14.67"/>
        <path class="cls-1" d="m80.69,75.88h-10.71c5.2-1.41,8.83-4.4,10.71-9.15"/>
      </g>
    </g>
  </g>
</svg>