<?xml version="1.0" encoding="UTF-8"?>
<svg id="Layer_2" data-name="Layer 2" xmlns="http://www.w3.org/2000/svg" viewBox="0 0 300.19 453.18">
  <defs>
    <style>
      .cls-1 {
        fill: #fff;
      }
    </style>
  </defs>
  <g id="Layer_1-2" data-name="Layer 1">
    <g>
      <path class="cls-1" d="M40.81,396.84c-4.11-4.48-13.7-31.5-13.19-34.12.05-.25,2.87-.27,11,2.69-1.15-10.33-2.74-11.81-2.81-26.41,8.07,5.01,9.41,7.83,14.12-7.8,12.58-41.74,14.21-42.22,21.39-33.74-2.28-16.61.2-49.42,17.27-59.07.52.33,6.55,8.45,11.48,13.56-1.84-15.94.78-36.3,4.11-50.56,18.46-29.89,28.38-45.15,42.38-67.87,7.25-11.7,23.55-27.45,24.63-24.97,10.51,24.04,17.58,51.67,36.12,58.28,21.85,7.79,30.46,12.09,46.31,3.75-12.94,50.46-21.09,75.84-39.57,101.67-6.36,18.96-14.82,37.26-28.79,51.94-24.02,22.19-28.15,25.5-22.24,27.58-12.08,21.33-36.38,35.18-59.54,40.69-15.65,2.03-13.68,5.43-5.85,11.26-13.53,5.18-40.44,3.7-56.83-6.86v-.02Z"/>
      <path d="M165.4,120.48c.12.04.21.14.25.3,1.03,3.51,3.91,102.99,5.89,106.22,1.42,2.31,25.04-43.07,29.7-50.24-1.5,7.95-24.48,53.38-23.98,54.2,1.31,2.1,60.97-31.91,62.36-31.59,2.55.59-17.96,48.96-30.55,72.06-11.49,21.09-32.03,23.63-33.41,25.01-2.73,2.73,21.34-2.39,22.17-1.03.74,1.21-13.27,24.23-18.41,30.27-11.36,13.33-47.94,23.29-48.39,25.14-.68,2.77,25.49.47,26.4,1.93-15.9,24.54-47.59,36.02-74.95,40.15q-5.02.76,1.31,4.88c3.01,1.95,6.66,4.08,5.49,4.51-11.01,3.95-24.54,2.38-32.51-.65,39.41-49.44,84.08-96.85,108.24-156.42-34.14,53.23-70.27,104.93-117.07,151.04-10.81-7.39-14.26-18.53-16.05-28.16,2.2,1.93,12.04,9.31,12.71,8.62-1.71-8.4-3.27-11.98-3.4-27.04l7.23,10.63c2.26-25.2,14.69-55.65,18.6-62.22,2.74,7.7,8.04,20.77,8.61,19.17,2.91-8.17-9.23-39.58,12.27-70.9,7.04,8.11,16.72,25.97,17.49,22.65.2-.86-.48-11.82-1.51-24.37-1.72-21.37,1.95-45.16,17.55-61.49,1.21,11.12,8.05,35.56,8.92,35.02,1.52-.94-1.19-25.26,1.53-43.41,1.65-11,3.13-14.54,11.11-26.59,10.63-16.05,20.6-28.29,22.41-27.67v-.02ZM216.24,130.11l13.15,3.06-3.06,13.15-13.15-3.06,3.06-13.15ZM194.59,94.54l21.05,4.89-4.89,21.05-21.05-4.89s4.89-21.05,4.89-21.05ZM251.56,102.54l20.27,4.71,4.71-20.27-20.27-4.71-4.71,20.27h0ZM199.73,64.99l14.84,3.45-3.45,14.84-14.84-3.45s3.45-14.84,3.45-14.84ZM275.2,76.67l16.69,3.88,3.88-16.69-16.69-3.88s-3.88,16.69-3.88,16.69ZM265.27,18.3c-26.89,1.77-100.72,68.04-150.14,153.39-17.36,28.89-23.59,46.8-19.56,66.54-.98-2.56-4.59-6.27-6.08-9.52-13.81,8.63-25.44,54.24-31.75,66.74-9.87,19.54-13.05,35.02-14.12,42.2,0,0-6.59-4.4-9.98-5.64-.52,10.57-.03,24.29-.15,27.46-3.31-.8-6.24-2.41-10.15-2.53-.69,20.05,5.07,33.52,17.19,46.58-10.43,11.39-12.77,13.88-24.54,25.87-6.72,6.85-21.64,21.52-13.74,23.3,6.82,1.86,9.25-1.7,16.8-9.34,10.99-11.12,20.79-22.71,31.83-33.77,16.15,6.42,41.62,5.54,54.32-6.12-.63-1.32-4.41-4.1-5.37-5.55,15.3.94,49.47-14.84,73.67-51.83.99-1.51-2.07-1.74-5.87-1.6,10.06-2.23,15.23-7.37,20.18-14.3,11.86-16.6,58.47-104.7,84.96-182.55l6.48-27.03-18.8-4.37-4.31,18.54-18.97-4.41,6.9-29.67-18.41-4.28,5.6-24.11,20.4,4.74,5.56-23.93,18.67,4.34,4.35-18.71-18.71-4.35-4.31,18.54-18.5-4.3,4.31-18.54,18.54,4.31c.87-3.73,1.96-9.61,3.7-16.11h0ZM270.72,27.88l15.71,3.65,3.65-15.71-15.71-3.65s-3.65,15.71-3.65,15.71ZM287.7,10.13l10.13,2.36,2.36-10.13-10.13-2.36-2.36,10.13Z"/>
    </g>
  </g>
</svg>